<svg xmlns="http://www.w3.org/2000/svg" width="24" height="24" viewBox="0 0 24 24" fill="currentColor">
  <path fill-rule="evenodd" d="M9 3.5c-2 0-3.72.33-4.9.83-.6.25-1 .54-1.24.81-.24.28-.36.55-.36.86s.12.58.36.86c.24.27.65.56 1.24.81 1.18.5 2.9.83 4.9.83s3.72-.33 4.9-.83c.6-.25 1-.54 1.24-.81.24-.28.36-.55.36-.86s-.12-.58-.36-.86c-.24-.27-.65-.56-1.24-.81C12.72 3.83 11 3.5 9 3.5zm-6 4.42V12c0 .31.12.58.36.86.24.27.65.56 1.24.81 1.18.5 2.9.83 4.9.83s3.72-.33 4.9-.83c.6-.25 1-.54 1.24-.81.24-.28.36-.55.36-.86V7.92c-.32.24-.68.44-1.06.6C13.55 9.13 11.35 9.5 9 9.5s-4.55-.37-5.94-.98c-.38-.16-.74-.36-1.06-.6zm0 5V15c0 .31.12.58.36.86.24.27.65.56 1.24.81 1.18.5 2.9.83 4.9.83.28 0 .56 0 .82-.02a5.5 5.5 0 0 1 .28-1.51c-.36.02-.73.04-1.1.04-2.35 0-4.55-.37-5.94-.98-.38-.16-.74-.36-1.06-.6z"/>
  <path fill-rule="evenodd" d="M17 13a4 4 0 1 0 2.32 7.26l2.11 2.11 1.06-1.06-2.11-2.11A4 4 0 0 0 17 13zm0 1.5a2.5 2.5 0 1 1 0 5 2.5 2.5 0 0 1 0-5z"/>
</svg>
